<svg id="Layer_1" data-name="Layer 1" xmlns="http://www.w3.org/2000/svg" xmlns:xlink="http://www.w3.org/1999/xlink" viewBox="0 0 662.3 226.6"><defs><style>.cls-1{fill:#737373;}.cls-2{fill:url(#Gradiente_sem_nome_3);}.cls-3{isolation:isolate;}.cls-4{fill:#fff;}</style><radialGradient id="Gradiente_sem_nome_3" cx="-25" cy="588" r="295.05" gradientTransform="translate(0 -330)" gradientUnits="userSpaceOnUse"><stop offset="0.09" stop-color="#1ab8eb"/><stop offset="0.28" stop-color="#1ab8eb"/><stop offset="0.62" stop-color="#4cbda2"/><stop offset="0.79" stop-color="#00b491"/></radialGradient></defs><title>Logo</title><path class="cls-1" d="M334.4,157.3c-22.8,0-36.5-15.8-36.5-45.2s13.6-45.2,35.9-45.2c10.1,0,19.7,3.4,26.3,13.9L350.6,85a19.18,19.18,0,0,0-16.9-9.3c-16.5,0-25.2,14.8-25.2,36.4s9.2,36.4,26.5,36.4c9.3,0,17.6-2.6,23.2-7.2l4.4,7.6C355.8,154.2,345.5,157.3,334.4,157.3Z" transform="translate(-0.8 -0.7)"/><path class="cls-1" d="M374.7,156.1v-88a8.24,8.24,0,0,1,4.5-1.2c3.4,0,5.9,2.6,5.9,7.1v82.1Z" transform="translate(-0.8 -0.7)"/><path class="cls-1" d="M452.9,74.9l-4.4,7.8a36.11,36.11,0,0,0-20.8-7c-9.9,0-15.8,4.9-15.8,13.1,0,10,8.9,13.6,18.6,17.3,11.5,4.5,24.2,9.5,24.2,26.4,0,15.8-10.6,24.8-28.5,24.8-10.5,0-20.4-2.7-27.4-8.1l3.4-8.1c5.6,4.6,14.5,7.3,24.1,7.3,11.2,0,17.7-5.3,17.7-14.4,0-10.9-9.2-14.4-18.9-18.3-11.4-4.5-23.7-9.2-23.7-25.7,0-14.8,9.9-23.2,26.5-23.2A43.83,43.83,0,0,1,452.9,74.9Z" transform="translate(-0.8 -0.7)"/><path class="cls-1" d="M517.5,74.9l-4.4,7.8a36.11,36.11,0,0,0-20.8-7c-9.9,0-15.8,4.9-15.8,13.1,0,10,8.9,13.6,18.6,17.3,11.5,4.5,24.2,9.5,24.2,26.4,0,15.8-10.6,24.8-28.5,24.8-10.5,0-20.4-2.7-27.4-8.1l3.4-8.1c5.6,4.6,14.5,7.3,24.1,7.3,11.2,0,17.7-5.3,17.7-14.4,0-10.9-9.2-14.4-18.9-18.3C478.3,111.2,466,106.5,466,90c0-14.8,9.9-23.2,26.5-23.2A43.59,43.59,0,0,1,517.5,74.9Z" transform="translate(-0.8 -0.7)"/><path class="cls-1" d="M594.8,109.8v46.9a3.07,3.07,0,0,1-2.1.6c-1.8,0-3.4-1.6-3.4-5.4v-6.1c-4.4,7.2-13.6,11.5-23.5,11.5-21.6,0-35.1-14.7-35.1-45.2s13.7-45.2,35.8-45.2c9.5,0,17.8,3.3,23.8,12.1l-5.1,2.6c-4.2-6.4-11.1-9.4-18.8-9.4-20.6,0-30,17.5-30,39.9s9.4,39.9,30,39.9c11,0,22.8-7,22.8-19.7V114.7H565v-5l29.8.1Z" transform="translate(-0.8 -0.7)"/><path class="cls-1" d="M607.5,126.2c0-19.5,10.4-31.1,27.8-31.1s27.8,11.6,27.8,31.1-10.4,31.1-27.8,31.1S607.5,145.7,607.5,126.2Zm50.3,0c0-16.6-8.3-26.5-22.5-26.5s-22.5,9.9-22.5,26.5,8.3,26.5,22.5,26.5S657.8,142.8,657.8,126.2Z" transform="translate(-0.8 -0.7)"/><path class="cls-2" d="M154.3,85a28,28,0,0,0-2.5-36.2l-2.9-2.9L146,48.8,79.8,115a39.39,39.39,0,0,0,55.7,55.7l16.3-16.3a27.82,27.82,0,0,0,2.5-36.2A27.6,27.6,0,0,0,154.3,85Zm-39.7,67.4a4.1,4.1,0,0,0,5.8,0l28.1-28.1a19.38,19.38,0,0,1-2.6,24.2l-16.3,16.3a31.15,31.15,0,0,1-44.1-44l62.9-62.9a19.51,19.51,0,0,1-2.6,24.2l-31.3,31.3a4.1,4.1,0,0,0,5.8,5.8l28.1-28.1a19.38,19.38,0,0,1-2.6,24.2l-31.3,31.3A4.2,4.2,0,0,0,114.6,152.4Z" transform="translate(-0.8 -0.7)"/><path class="cls-2" d="M152.6.7h-77A74.94,74.94,0,0,0,.8,75.5v77a74.88,74.88,0,0,0,74.8,74.8h77a74.88,74.88,0,0,0,74.8-74.8v-77A74.94,74.94,0,0,0,152.6.7Zm62,151.8a62.05,62.05,0,0,1-62,62h-77a62.05,62.05,0,0,1-61.9-58.1L152.6,13.5a62.05,62.05,0,0,1,62,62Z" transform="translate(-0.8 -0.7)"/><g class="cls-3"><path class="cls-4" d="M36.5,86.8a7.33,7.33,0,0,1,4.3,2.3,7.3,7.3,0,0,1,2.3,6.1c-.3,2.3-1.5,4.5-3.8,6.8l-7.7,7.7a2.59,2.59,0,0,1-1.8.9,2.69,2.69,0,0,1-1.8-.8L10.6,92.4a2.12,2.12,0,0,1-.8-1.8,2.42,2.42,0,0,1,.9-1.8l7.4-7.4a11.73,11.73,0,0,1,6.6-3.7,6.57,6.57,0,0,1,5.9,2.2,6.74,6.74,0,0,1,2,3.8,7.72,7.72,0,0,1-.6,4.2A6.12,6.12,0,0,1,36.5,86.8ZM21.4,95.6l4.8-4.8c2.6-2.6,3-4.9,1-6.9A3.48,3.48,0,0,0,24,82.7,6.63,6.63,0,0,0,20.3,85l-4.8,4.8Zm16.8.1a4.05,4.05,0,0,0-1.4-3.3A4.25,4.25,0,0,0,33.5,91a7.25,7.25,0,0,0-3.8,2.2l-5.3,5.3,6.2,6.2,5.3-5.3A7,7,0,0,0,38.2,95.7Z" transform="translate(-0.8 -0.7)"/><path class="cls-4" d="M52.9,87.4a2.69,2.69,0,0,1-1.8-.8L33.7,69.3a2.12,2.12,0,0,1-.8-1.8,2.42,2.42,0,0,1,.9-1.8L44.5,55a3.06,3.06,0,0,1,1.7-1,1.74,1.74,0,0,1,1.6.6,2.13,2.13,0,0,1,.7,1.6,2.61,2.61,0,0,1-.9,1.7l-8.8,8.8,5.8,5.8,8.2-8.2a2.4,2.4,0,0,1,1.7-.9,1.83,1.83,0,0,1,1.6.7,1.74,1.74,0,0,1,.6,1.6,3.54,3.54,0,0,1-.9,1.7l-8.2,8.2,6.1,6.1,8.8-8.8a2.59,2.59,0,0,1,1.7-.9,2.29,2.29,0,0,1,1.6.7,1.74,1.74,0,0,1,.6,1.6,3.06,3.06,0,0,1-1,1.7L54.7,86.5A2.59,2.59,0,0,1,52.9,87.4Z" transform="translate(-0.8 -0.7)"/><path class="cls-4" d="M78.3,62.2a2.62,2.62,0,0,1-1.9-.9l-16-16L55,50.7c-1.2,1.2-2.3,1.3-3.4.2s-1-2.2.2-3.4L66.4,32.9c1.2-1.2,2.3-1.3,3.4-.2s1,2.2-.2,3.4l-5.4,5.4,16,16a2.8,2.8,0,0,1-1.9,4.7Z" transform="translate(-0.8 -0.7)"/><path class="cls-4" d="M109.3,28.9a1.83,1.83,0,0,1,.6,1.7,2.14,2.14,0,0,1-.8,1.7,2.38,2.38,0,0,1-1.1.6,2.29,2.29,0,0,1-1.4-.1l-5.8-2.2L90.3,41.1l2.2,5.8a2.29,2.29,0,0,1,.1,1.4,2.52,2.52,0,0,1-.7,1.2,2.72,2.72,0,0,1-1.7.8,1.75,1.75,0,0,1-1.7-.6,2.07,2.07,0,0,1-.6-1L78.5,22.9a3.28,3.28,0,0,1-.1-1.7,2.9,2.9,0,0,1,.9-1.5,3.77,3.77,0,0,1,1.5-.9,2.5,2.5,0,0,1,1.7.1l25.8,9.4A8.79,8.79,0,0,1,109.3,28.9Zm-20.6,8,7.8-7.8L83.8,24.2Z" transform="translate(-0.8 -0.7)"/></g></svg>